# xmcd
#
# Track frame offsets: 
#        150
#        13939
#        30809
#        47896
#        55654
#        66992
#        78140
#        86998
#        100172
#        114774
#        129895
#        138643
#        150093
#        158707
#
# Disc length: 2283 seconds
#
# Revision: 0
# Processed by: cddbd v1.5.2PL0 Copyright (c) Steve Scherf et al.
# Submitted via: ExactAudioCopy v0.99pb4
#
DISCID=a008e90e
DTITLE=Cornell Hurd Band - Fanmail: From the Lost Planet
DYEAR=2005
DGENRE=Country
TTITLE0=(I've Got A Woman In) San Angelo
TTITLE1=Party Time
TTITLE2=I Drink Too Much
TTITLE3=First Day On The Trail
TTITLE4=Violent Love
TTITLE5=The Seeds Of My Destruction
TTITLE6=The Guns Of Navarone, Texas
TTITLE7=Learning To Live With The Blues
TTITLE8=Just One More Time
TTITLE9=Ram-Bunk-Shush
TTITLE10=Love Rollercoaster
TTITLE11=I Always Went Through
TTITLE12=Incident In Juarez (Los Rubboardistas)
TTITLE13=Waiting At The End Of The Road
EXTD=
EXTT0=
EXTT1=
EXTT2=
EXTT3=
EXTT4=
EXTT5=
EXTT6=
EXTT7=
EXTT8=
EXTT9=
EXTT10=
EXTT11=
EXTT12=
EXTT13=
PLAYORDER=
